<svg width="16" height="19" viewBox="0 0 16 19" fill="none" xmlns="http://www.w3.org/2000/svg">
<path fill-rule="evenodd" clip-rule="evenodd" d="M15.602 10.6424L14.1898 9.30556L9.72565 5.24414L7.80121 7.05378C7.62527 7.29082 7.63721 7.61079 7.83709 7.83241L9.59646 9.33279L9.5904 9.33514L11.4814 11.1247C11.7051 11.3712 11.6992 11.7362 11.4646 11.9732L6.36621 16.7706L8.68446 18.9618L15.602 12.4532C16.1322 11.9531 16.1334 11.1424 15.602 10.64V10.6424Z" fill="black"/>
<path fill-rule="evenodd" clip-rule="evenodd" d="M0.396437 8.32188L1.80869 9.65516L6.27519 13.7165L8.19844 11.9069C8.2839 11.7928 8.327 11.6531 8.32046 11.5112C8.31393 11.3694 8.25815 11.2341 8.16256 11.1282L6.40319 9.62551L6.40919 9.62192L4.51706 7.83363C4.29562 7.5883 4.30162 7.2221 4.535 6.98624L9.63344 2.18655L7.31519 0L0.397687 6.50864C-0.132562 7.00871 -0.132562 7.82057 0.397687 8.32188H0.396437Z" fill="#EF4444"/>
</svg>
