<svg width="123" height="123" viewBox="0 0 123 123" fill="none" xmlns="http://www.w3.org/2000/svg">
<path d="M89.7488 55.5023L46.319 33.7807C45.0913 33.1663 43.7268 32.8762 42.3553 32.9378C40.9838 32.9994 39.6508 33.4108 38.4831 34.1328C37.3154 34.8548 36.3518 35.8634 35.6838 37.0628C35.0158 38.2623 34.6656 39.6126 34.6666 40.9855V82.0136C34.6656 83.3865 35.0158 84.7368 35.6838 85.9362C36.3518 87.1356 37.3154 88.1443 38.4831 88.8663C39.6508 89.5883 40.9838 89.9997 42.3553 90.0613C43.7268 90.1229 45.0913 89.8327 46.319 89.2184L89.7488 67.4968C90.8615 66.9391 91.7972 66.0827 92.4511 65.0236C93.105 63.9644 93.4513 62.7443 93.4513 61.4995C93.4513 60.2548 93.105 59.0346 92.4511 57.9755C91.7972 56.9163 90.8615 56.06 89.7488 55.5023Z" stroke="white" stroke-width="2" stroke-linecap="round" stroke-linejoin="round"/>
<path d="M61.5 121.875C94.8442 121.875 121.875 94.8442 121.875 61.5C121.875 28.1558 94.8442 1.125 61.5 1.125C28.1558 1.125 1.125 28.1558 1.125 61.5C1.125 94.8442 28.1558 121.875 61.5 121.875Z" stroke="white" stroke-width="2"/>
</svg>
