<svg width="11" height="12" viewBox="0 0 11 12" fill="none" xmlns="http://www.w3.org/2000/svg">
<path d="M5.94886 11.3011C5.07955 11.3011 4.31108 11.1818 3.64347 10.9432C2.97585 10.7074 2.41477 10.3594 1.96023 9.89915C1.50568 9.43892 1.16193 8.875 0.928977 8.20739C0.696023 7.53977 0.579545 6.77557 0.579545 5.91477C0.579545 5.08239 0.697443 4.33807 0.933239 3.68182C1.17188 3.02557 1.51705 2.46875 1.96875 2.01136C2.4233 1.55114 2.97443 1.20028 3.62216 0.958807C4.27273 0.717329 5.00852 0.596591 5.82955 0.596591C6.62784 0.596591 7.3267 0.727272 7.92614 0.988636C8.52841 1.24716 9.03125 1.59801 9.43466 2.04119C9.84091 2.48153 10.1449 2.97727 10.3466 3.52841C10.5511 4.07955 10.6534 4.64773 10.6534 5.23295C10.6534 5.64489 10.6335 6.0625 10.5938 6.4858C10.554 6.90909 10.4702 7.2983 10.3423 7.65341C10.2145 8.00568 10.017 8.28977 9.75 8.50568C9.4858 8.72159 9.12784 8.82955 8.67614 8.82955C8.47727 8.82955 8.25852 8.7983 8.01989 8.7358C7.78125 8.6733 7.5696 8.5696 7.38494 8.42472C7.20028 8.27983 7.09091 8.08523 7.05682 7.84091H7.00568C6.9375 8.00568 6.83239 8.16193 6.69034 8.30966C6.55114 8.45739 6.3679 8.57528 6.14062 8.66335C5.91619 8.75142 5.64205 8.78977 5.31818 8.77841C4.94886 8.7642 4.62358 8.68182 4.34233 8.53125C4.06108 8.37784 3.82528 8.17045 3.63494 7.90909C3.44744 7.64489 3.3054 7.33949 3.20881 6.9929C3.11506 6.64347 3.06818 6.26705 3.06818 5.86364C3.06818 5.48011 3.125 5.12926 3.23864 4.81108C3.35227 4.4929 3.50994 4.21449 3.71165 3.97585C3.91619 3.73722 4.15483 3.54687 4.42756 3.40483C4.70313 3.25994 5 3.17045 5.31818 3.13636C5.60227 3.10795 5.8608 3.12074 6.09375 3.17472C6.3267 3.22585 6.51847 3.30398 6.66903 3.40909C6.8196 3.51136 6.91477 3.625 6.95455 3.75H7.00568V3.27273H7.90909V7.125C7.90909 7.36364 7.97585 7.57386 8.10938 7.75568C8.2429 7.9375 8.4375 8.02841 8.69318 8.02841C8.98295 8.02841 9.20455 7.92898 9.35795 7.73011C9.5142 7.53125 9.62074 7.22443 9.67756 6.80966C9.73722 6.39489 9.76705 5.86364 9.76705 5.21591C9.76705 4.83523 9.71449 4.46023 9.60938 4.09091C9.5071 3.71875 9.35085 3.37074 9.14062 3.04688C8.93324 2.72301 8.67045 2.4375 8.35227 2.19034C8.03409 1.94318 7.66051 1.75 7.23153 1.6108C6.8054 1.46875 6.32102 1.39773 5.77841 1.39773C5.1108 1.39773 4.51278 1.50142 3.98438 1.70881C3.45881 1.91335 3.01136 2.21307 2.64205 2.60795C2.27557 3 1.99574 3.47727 1.80256 4.03977C1.61222 4.59943 1.51705 5.2358 1.51705 5.94886C1.51705 6.6733 1.61222 7.31676 1.80256 7.87926C1.99574 8.44176 2.27983 8.91619 2.65483 9.30256C3.03267 9.68892 3.5 9.98153 4.05682 10.1804C4.61364 10.3821 5.25568 10.483 5.98295 10.483C6.29545 10.483 6.60369 10.4531 6.90767 10.3935C7.21165 10.3338 7.48011 10.2685 7.71307 10.1974C7.94602 10.1264 8.11364 10.0739 8.21591 10.0398L8.45455 10.8239C8.27841 10.8977 8.0483 10.9716 7.7642 11.0455C7.48295 11.1193 7.18182 11.1804 6.8608 11.2287C6.54261 11.277 6.23864 11.3011 5.94886 11.3011ZM5.45455 7.90909C5.83523 7.90909 6.14347 7.83239 6.37926 7.67898C6.61506 7.52557 6.78693 7.29403 6.89489 6.98438C7.00284 6.67472 7.05682 6.28409 7.05682 5.8125C7.05682 5.33523 6.99716 4.96307 6.87784 4.69602C6.75852 4.42898 6.58239 4.24148 6.34943 4.13352C6.11648 4.02557 5.82955 3.97159 5.48864 3.97159C5.16477 3.97159 4.88778 4.05682 4.65767 4.22727C4.4304 4.39489 4.25568 4.61932 4.13352 4.90057C4.0142 5.17898 3.95455 5.48295 3.95455 5.8125C3.95455 6.17614 4.00284 6.51847 4.09943 6.83949C4.19602 7.15767 4.35369 7.41619 4.57244 7.61506C4.79119 7.81108 5.08523 7.90909 5.45455 7.90909Z" fill="white"/>
</svg>
