<svg width="5" height="10" viewBox="0 0 5 10" fill="none" xmlns="http://www.w3.org/2000/svg">
<path d="M4.33523 3.45455V4.30682H0.806818V3.45455H4.33523ZM1.86364 10V2.55114C1.86364 2.17614 1.9517 1.86364 2.12784 1.61364C2.30398 1.36364 2.53267 1.17614 2.81392 1.05114C3.09517 0.926136 3.39205 0.863636 3.70455 0.863636C3.9517 0.863636 4.15341 0.883522 4.30966 0.923295C4.46591 0.963068 4.58239 1 4.65909 1.03409L4.36932 1.90341C4.31818 1.88636 4.24716 1.86506 4.15625 1.83949C4.06818 1.81392 3.9517 1.80114 3.80682 1.80114C3.47443 1.80114 3.23438 1.88494 3.08665 2.05256C2.94176 2.22017 2.86932 2.46591 2.86932 2.78977V10H1.86364Z" fill="white"/>
</svg>
