<svg width="18" height="18" viewBox="0 0 18 18" fill="none" xmlns="http://www.w3.org/2000/svg">
<path d="M15.0568 3.09106C14.2927 2.31948 13.3827 1.7077 12.3797 1.29136C11.3768 0.875026 10.301 0.662463 9.21514 0.666061C4.66514 0.666061 0.956804 4.37439 0.956804 8.92439C0.956804 10.3827 1.34014 11.7994 2.0568 13.0494L0.890137 17.3327L5.26514 16.1827C6.47347 16.8411 7.8318 17.1911 9.21514 17.1911C13.7651 17.1911 17.4735 13.4827 17.4735 8.93273C17.4735 6.72439 16.6151 4.64939 15.0568 3.09106ZM9.21514 15.7911C7.9818 15.7911 6.77347 15.4577 5.71514 14.8327L5.46514 14.6827L2.86514 15.3661L3.5568 12.8327L3.39014 12.5744C2.70476 11.4803 2.34091 10.2155 2.34014 8.92439C2.34014 5.14106 5.42347 2.05773 9.2068 2.05773C11.0401 2.05773 12.7651 2.77439 14.0568 4.07439C14.6965 4.71095 15.2034 5.46818 15.5482 6.30217C15.8929 7.13616 16.0686 8.0303 16.0651 8.93273C16.0818 12.7161 12.9985 15.7911 9.21514 15.7911ZM12.9818 10.6577C12.7735 10.5577 11.7568 10.0577 11.5735 9.98273C11.3818 9.91606 11.2485 9.88273 11.1068 10.0827C10.9651 10.2911 10.5735 10.7577 10.4568 10.8911C10.3401 11.0327 10.2151 11.0494 10.0068 10.9411C9.79847 10.8411 9.1318 10.6161 8.34847 9.91606C7.7318 9.36606 7.32347 8.69106 7.19847 8.48273C7.0818 8.27439 7.1818 8.16606 7.29014 8.05773C7.3818 7.96606 7.49847 7.81606 7.59847 7.69939C7.69847 7.58273 7.74014 7.49106 7.8068 7.35773C7.87347 7.21606 7.84014 7.09939 7.79014 6.99939C7.74014 6.89939 7.32347 5.88273 7.1568 5.46606C6.99014 5.06606 6.81514 5.11606 6.69014 5.10773H6.29014C6.14847 5.10773 5.9318 5.15773 5.74014 5.36606C5.5568 5.57439 5.02347 6.07439 5.02347 7.09106C5.02347 8.10773 5.76514 9.09106 5.86514 9.22439C5.96514 9.36606 7.32347 11.4494 9.39014 12.3411C9.8818 12.5577 10.2651 12.6827 10.5651 12.7744C11.0568 12.9327 11.5068 12.9077 11.8651 12.8577C12.2651 12.7994 13.0901 12.3577 13.2568 11.8744C13.4318 11.3911 13.4318 10.9827 13.3735 10.8911C13.3151 10.7994 13.1901 10.7577 12.9818 10.6577Z" fill="black"/>
</svg>
